<?xml version="1.0" standalone="no"?>
<!DOCTYPE svg PUBLIC "-//W3C//DTD SVG 20010904//EN"
 "http://www.w3.org/TR/2001/REC-SVG-20010904/DTD/svg10.dtd">
<svg version="1.0" xmlns="http://www.w3.org/2000/svg"
 width="928.000000pt" height="928.000000pt" viewBox="0 0 928.000000 928.000000"
 preserveAspectRatio="xMidYMid meet">
<metadata>
Created by potrace 1.11, written by Peter Selinger 2001-2013
</metadata>
<g transform="translate(0.000000,928.000000) scale(0.100000,-0.100000)"
fill="#000000" stroke="none">
<path d="M1454 7691 c-99 -25 -209 -114 -246 -198 -43 -98 -31 -250 25 -312
120 -130 326 -102 398 54 25 54 24 102 -3 155 -57 110 -175 138 -250 58 -32
-33 -43 -67 -34 -103 8 -31 32 -33 41 -2 11 34 46 67 71 67 110 0 133 -134 33
-194 -57 -34 -125 -24 -171 27 -70 77 -38 237 60 301 48 32 109 45 188 42 51
-3 73 -10 122 -40 112 -68 184 -160 221 -281 19 -64 20 -87 6 -195 -8 -65 -90
-316 -170 -520 -89 -229 -96 -254 -100 -371 -4 -120 9 -185 55 -282 66 -135
177 -244 314 -308 152 -71 324 -58 487 37 32 19 59 34 62 34 3 0 8 -20 11 -44
13 -83 95 -182 174 -210 176 -62 226 -124 179 -221 -28 -58 -49 -128 -71 -238
-9 -43 -34 -117 -56 -166 -43 -96 -47 -113 -27 -129 17 -15 243 -68 299 -71
10 -1 -55 -69 -165 -173 -100 -94 -205 -195 -234 -222 -29 -28 -98 -94 -153
-146 -145 -137 -255 -242 -337 -323 -70 -69 -72 -72 -68 -114 9 -86 65 -168
133 -194 15 -6 99 -12 187 -13 88 -2 171 -6 185 -11 51 -17 100 -58 122 -104
l22 -46 1 -1545 c0 -1474 1 -1547 19 -1579 26 -49 64 -79 122 -96 44 -14 170
-15 985 -13 l934 3 42 30 c23 17 52 50 65 75 l22 45 2 915 c1 1016 -3 955 68
1018 58 51 93 54 616 50 419 -3 479 -5 505 -20 44 -24 70 -49 91 -88 18 -34
19 -72 21 -945 1 -501 2 -910 3 -910 1 0 3 -8 5 -18 6 -34 33 -82 57 -102 61
-53 4 -50 983 -53 501 -2 929 0 952 3 52 8 101 51 137 122 14 29 26 55 25 58
0 3 3 19 6 36 4 17 9 43 13 57 3 15 7 630 8 1367 2 737 6 1358 9 1381 7 49 52
107 106 134 21 11 39 18 39 14 0 -4 6 -2 13 3 6 6 83 11 170 12 95 2 169 7
186 14 75 32 121 106 121 195 0 47 -2 49 -76 117 -42 39 -119 112 -173 162
-53 51 -98 93 -101 94 -3 0 -57 50 -120 110 -214 205 -245 234 -370 349 -69
63 -151 140 -182 170 l-58 55 -3 975 c-1 536 -5 983 -8 992 -3 9 -22 37 -42
61 -28 34 -48 47 -82 56 -41 10 -712 17 -785 7 -35 -4 -101 -39 -127 -68 -50
-53 -52 -77 -51 -528 0 -232 -2 -423 -5 -426 -4 -4 -310 283 -626 590 -57 56
-159 154 -225 218 -245 237 -282 271 -339 310 -72 49 -116 68 -176 75 -25 3
-48 6 -51 6 -28 5 -170 -40 -170 -54 0 -5 -5 -9 -11 -9 -19 0 -106 -74 -259
-219 -230 -218 -227 -215 -305 -236 -51 -14 -80 -28 -111 -57 -24 -22 -51 -38
-65 -38 -26 1 -128 33 -219 70 -45 18 -127 43 -175 54 -36 8 -55 19 -55 33 0
8 -13 33 -28 56 -16 23 -49 74 -75 112 -26 39 -70 95 -97 125 -28 30 -49 62
-48 70 2 8 34 26 73 40 39 14 80 31 92 38 36 20 56 69 51 124 -4 38 -1 51 12
61 46 32 54 106 15 140 -96 87 -86 81 -120 68 -34 -13 -98 15 -116 52 -32 64
-115 44 -220 -55 -85 -80 -124 -149 -135 -243 -2 -16 -6 -37 -9 -45 -6 -17
-73 -63 -151 -105 -28 -14 -75 -46 -104 -70 -28 -23 -93 -63 -143 -89 -189
-95 -278 -156 -376 -256 -85 -87 -122 -135 -191 -251 -97 -164 -166 -250 -229
-287 -40 -24 -56 -27 -132 -27 -78 0 -91 3 -160 37 -44 22 -92 55 -116 80 -42
45 -120 178 -129 220 -20 93 -10 199 28 313 21 64 125 313 138 330 10 14 58
154 65 190 3 17 8 41 10 55 3 14 8 39 11 55 9 47 10 175 2 225 -33 187 -201
398 -355 445 -58 18 -187 27 -229 16z m2485 -1584 c56 -41 99 -58 214 -83 115
-24 167 -29 299 -29 l126 0 -89 -87 c-50 -49 -92 -88 -94 -88 -2 0 -30 -26
-63 -57 -32 -32 -70 -68 -84 -81 l-25 -23 -129 128 c-207 204 -234 243 -234
334 0 45 -3 46 79 -14z m-326 -44 c-7 -111 33 -193 129 -268 24 -19 120 -72
213 -120 94 -48 174 -90 178 -95 10 -9 -39 -50 -61 -50 -8 0 -40 -26 -71 -59
-47 -49 -64 -60 -108 -70 -66 -13 -99 -1 -108 41 -10 44 -93 248 -121 295 -13
23 -50 68 -82 101 -53 56 -62 61 -134 77 -43 10 -78 21 -78 24 0 4 42 34 93
68 50 34 103 73 116 87 13 14 27 24 30 21 4 -2 5 -25 4 -52z m-230 -409 c17
-14 47 -49 67 -77 21 -29 69 -85 109 -126 40 -41 86 -101 104 -133 l32 -60 60
6 60 6 -120 -115 c-66 -63 -121 -115 -123 -115 -1 0 -36 -33 -77 -72 -191
-188 -178 -178 -268 -203 -60 -16 -106 -22 -166 -21 -102 2 -110 12 -69 75 79
122 128 202 128 211 0 5 3 10 8 10 15 0 58 108 73 185 5 28 10 78 10 111 1 65
-17 111 -80 204 l-31 45 65 12 c42 8 86 25 123 47 31 20 58 36 60 36 2 0 18
-12 35 -26z"/>
</g>
</svg>
